@startuml

abstract class "Média" as M{
    # titre : chaine
    # duréeEmprunt : entier
    + {abstract} informationsMedia() : string
}

class "Livre" as L{
    - isbn : chaine
    - auteur : chaine
    - nbPages : entier
}

class "Blu-Ray" as BR{
    - réalisateur : chaine
    - durée : chaine
    - anneeSortie : chaine
}

class "Magazine" as Ma{
    - numéroMagazine : entier
    - datePublication : date
}

class "Adhérent" as A{
    - numeroAdherent : chaine
    - prenom : chaine
    - nom : chaine
    - email : chaine
    - dateAdhésion : date
    - genererNumero() : chaine
    + renouvelerAdhésion() : vide
    + infosAdhérent() : chaine
    + adhesionValable() : booleen
}

class "Emprunt" as E{
    - numéroEmprunt : entier
    - dateEmprunt : date
    - dateRetourEstimée : date
    - dateRetourReel : date
    + infosEmprunt() : chaine
    + renduMedia() : vide
    + enCours() : booleen
    + enAlerte() : booleen
    + estDepasse() : booleen
}

class "Bibliothèque" as B{
    - nom : chaine
    + inscrireAdherent() : vide
    + ajouterMedia() : vide
    + creerEmprunt() : vide
}

M <|-- L
M <|-- BR
M <|-- Ma
M "1..1" <-- "              0..*"E : est emprunté >
A "1..1" <-- "0..*"E : emprunte >
B --> "0..*"M : possède >
B --> "0..*"E : gère >
B --> "0..*"A : adhère a <


@enduml